# xmcd
#
# Track frame offsets: 
#        225
#        19177
#        31005
#        45922
#        73272
#        85197
#        103040
#        136405
#        153302
#        165025
#        196882
#        207812
#        233412
#        249377
#        267875
#        299297
#        313560
#
# Disc length: 4377 seconds
#
# Revision: 0
# Processed by: cddbd v1.5.2PL0 Copyright (c) Steve Scherf et al.
# Submitted via: ExactAudioCopy v1.0b2
#
DISCID=d3111611
DTITLE=Livin' Blues - 3 Originals
DYEAR=1998
DGENRE=Blues
TTITLE0=L.B. Boogie
TTITLE1=Sunrize
TTITLE2=Keep On
TTITLE3=Hitch-Hikin'
TTITLE4=Bamboozle Song
TTITLE5=Overture
TTITLE6=Black Night
TTITLE7=Big City Man
TTITLE8=Shady Girl, Shady Girl
TTITLE9=Fool On You
TTITLE10=Tongue 'n' Groove
TTITLE11=You're A Stranger
TTITLE12=Sweet Suzanne
TTITLE13=Ain't No Use Crying
TTITLE14=Diving Duck Blues
TTITLE15=Eye To Eye
TTITLE16=Please Don't Leave Me
EXTD=
EXTT0=
EXTT1=
EXTT2=
EXTT3=
EXTT4=
EXTT5=
EXTT6=
EXTT7=
EXTT8=
EXTT9=
EXTT10=
EXTT11=
EXTT12=
EXTT13=
EXTT14=
EXTT15=
EXTT16=
PLAYORDER=
